<?xml version="1.0" encoding="UTF-8" standalone="no"?>
<!-- Created with Inkscape (http://www.inkscape.org/) -->

<svg
   xmlns:dc="http://purl.org/dc/elements/1.1/"
   xmlns:cc="http://creativecommons.org/ns#"
   xmlns:rdf="http://www.w3.org/1999/02/22-rdf-syntax-ns#"
   xmlns:svg="http://www.w3.org/2000/svg"
   xmlns="http://www.w3.org/2000/svg"
   xmlns:xlink="http://www.w3.org/1999/xlink"
   xmlns:sodipodi="http://sodipodi.sourceforge.net/DTD/sodipodi-0.dtd"
   xmlns:inkscape="http://www.inkscape.org/namespaces/inkscape"
   width="40"
   height="61"
   id="svg2"
   version="1.1"
   inkscape:version="0.48.4 r9939"
   sodipodi:docname="paprika-brand-mascot.svg"
   inkscape:export-filename="C:\Users\Ste\SkyDrive\Documents\Web\host\paprika\resources\paprika-brand-mascot.png"
   inkscape:export-xdpi="767.64703"
   inkscape:export-ydpi="767.64703">
  <defs
     id="defs4">
    <linearGradient
       inkscape:collect="always"
       id="linearGradient3109">
      <stop
         style="stop-color:#800000;stop-opacity:1;"
         offset="0"
         id="stop3111" />
      <stop
         style="stop-color:#c71717;stop-opacity:1"
         offset="1"
         id="stop3113" />
    </linearGradient>
    <linearGradient
       inkscape:collect="always"
       xlink:href="#linearGradient3109"
       id="linearGradient3115"
       x1="91.875"
       y1="38.505283"
       x2="91.875"
       y2="27.25242"
       gradientUnits="userSpaceOnUse"
       gradientTransform="translate(311.78868,304.94975)" />
    <linearGradient
       inkscape:collect="always"
       xlink:href="#linearGradient3109"
       id="linearGradient3891"
       gradientUnits="userSpaceOnUse"
       gradientTransform="translate(311.78868,304.94975)"
       x1="91.875"
       y1="38.505283"
       x2="91.875"
       y2="27.25242" />
    <linearGradient
       inkscape:collect="always"
       xlink:href="#linearGradient3109"
       id="linearGradient3897"
       gradientUnits="userSpaceOnUse"
       gradientTransform="matrix(1.0386355,0,0,1.0386355,308.57377,302.89066)"
       x1="91.875"
       y1="38.505283"
       x2="91.875"
       y2="27.25242" />
  </defs>
  <sodipodi:namedview
     id="base"
     pagecolor="#ffffff"
     bordercolor="#666666"
     borderopacity="1.0"
     inkscape:pageopacity="0.0"
     inkscape:pageshadow="2"
     inkscape:zoom="15.839192"
     inkscape:cx="88.322153"
     inkscape:cy="30.98257"
     inkscape:document-units="px"
     inkscape:current-layer="layer1"
     showgrid="false"
     inkscape:snap-bbox="true"
     fit-margin-top="5"
     fit-margin-left="5"
     fit-margin-right="5"
     fit-margin-bottom="5"
     showguides="true"
     inkscape:guide-bbox="true"
     inkscape:window-width="1366"
     inkscape:window-height="715"
     inkscape:window-x="-8"
     inkscape:window-y="-8"
     inkscape:window-maximized="1">
    <inkscape:grid
       type="xygrid"
       id="grid2985"
       empspacing="5"
       visible="true"
       enabled="true"
       snapvisiblegridlinesonly="true"
       originx="-310px"
       originy="-685px" />
  </sodipodi:namedview>
  <metadata
     id="metadata7">
    <rdf:RDF>
      <cc:Work
         rdf:about="">
        <dc:format>image/svg+xml</dc:format>
        <dc:type
           rdf:resource="http://purl.org/dc/dcmitype/StillImage" />
        <dc:title></dc:title>
      </cc:Work>
    </rdf:RDF>
  </metadata>
  <g
     inkscape:label="Layer 1"
     inkscape:groupmode="layer"
     id="layer1"
     transform="translate(-310,-306.36218)">
    <path
       style="fill:#800000;stroke:none"
       d="m 320,327.36218 c 0,0 -5,25 -5,30 0,5 10,5 15,5 5,0 15,0 15,-5 0,-5 -5,-30 -5,-30 z"
       id="path2987"
       inkscape:connector-curvature="0"
       sodipodi:nodetypes="cssscc" />
    <path
       style="fill:#808080;stroke:none"
       d="m 330,329.79075 c 5.75,0 11.5,-0.27678 11.5,-1.42857 0,-1.15178 -1.5,-2.84822 -1.5,-4 0,-1.15179 1.5,-1.48214 1.5,-7.24107 0,-5.75893 -5.75,-5.75893 -11.5,-5.75893 -5.75,0 -11.5,0 -11.5,5.75893 0,5.75893 1.5,6.08928 1.5,7.24107 0,1.15178 -1.5,2.84822 -1.5,4 0,1.15179 5.75,1.42857 11.5,1.42857 z"
       id="path2993"
       inkscape:connector-curvature="0"
       sodipodi:nodetypes="zzssssszz" />
    <path
       inkscape:connector-curvature="0"
       id="path3025"
       style="font-size:10px;font-style:normal;font-variant:normal;font-weight:normal;font-stretch:normal;line-height:125%;letter-spacing:0px;word-spacing:0px;color:#000000;fill:#ffffff;fill-opacity:1;fill-rule:nonzero;stroke:none;stroke-width:1px;marker:none;visibility:visible;font-family:Open Sans;-inkscape-font-specification:Open Sans"
       d="m 324.86036,335.97422 c 0.52237,0 0.91803,0.11879 1.18703,0.35667 0.26896,0.23783 0.40345,0.57889 0.40345,1.0233 0,0.45219 -0.13461,0.80498 -0.40345,1.05836 -0.269,0.2534 -0.66466,0.38007 -1.18703,0.3801 -0.50677,-3e-5 -0.89659,-0.12862 -1.16946,-0.38595 -0.27287,-0.25728 -0.40932,-0.60813 -0.40932,-1.05251 0,-0.39763 0.12287,-0.72703 0.36838,-0.98821 0.2456,-0.26118 0.64907,-0.39176 1.2104,-0.39176 z m 10.32644,0 c 1.05249,0 1.57876,0.45997 1.57878,1.37997 -2e-5,0.95896 -0.52629,1.43843 -1.57878,1.43846 -0.5068,-3e-5 -0.89662,-0.12862 -1.16949,-0.38595 -0.27288,-0.25728 -0.40932,-0.60813 -0.4093,-1.05251 -2e-5,-0.39763 0.12287,-0.72703 0.36836,-0.98821 0.24559,-0.26118 0.64907,-0.39176 1.21043,-0.39176 z" />
    <path
       inkscape:connector-curvature="0"
       id="path3027"
       style="font-size:10px;font-style:normal;font-variant:normal;font-weight:normal;font-stretch:normal;line-height:125%;letter-spacing:0px;word-spacing:0px;color:#000000;fill:#ffffff;fill-opacity:1;fill-rule:nonzero;stroke:none;stroke-width:1px;marker:none;visibility:visible;font-family:Open Sans;-inkscape-font-specification:Open Sans"
       d="m 333.73644,355.75015 c -1.73082,0 -3.06208,-0.59058 -3.99374,-1.77174 -0.93168,-1.18118 -1.39752,-2.87107 -1.39752,-5.06965 l 0,-2.0115 -6.72446,0 0,-1.98808 17.09767,0 0,4.43227 c -3e-5,4.27246 -1.66068,6.4087 -4.98195,6.4087 z m -3.68384,-8.85289 0,1.78929 c 0,1.762 0.28456,3.03671 0.85373,3.82416 0.56911,0.78743 1.4813,1.18116 2.73656,1.18118 1.13047,-2e-5 1.97249,-0.37035 2.52604,-1.111 0.55355,-0.74068 0.83032,-1.89455 0.83032,-3.46163 l 0,-2.222 z" />
    <path
       sodipodi:type="arc"
       style="color:#000000;fill:#1a1a1a;fill-opacity:1;fill-rule:nonzero;stroke:none;stroke-width:2;marker:none;visibility:visible;display:inline;overflow:visible;enable-background:accumulate"
       id="path3003"
       sodipodi:cx="331"
       sodipodi:cy="312.86218"
       sodipodi:rx="1"
       sodipodi:ry="0.5"
       d="m 332,312.86218 c 0,0.27614 -0.44772,0.5 -1,0.5 -0.55228,0 -1,-0.22386 -1,-0.5 0,-0.27614 0.44772,-0.5 1,-0.5 0.55228,0 1,0.22386 1,0.5 z"
       transform="matrix(0.95,0,0,0.8,16.9,62.672437)" />
    <path
       sodipodi:type="arc"
       style="color:#000000;fill:#1a1a1a;fill-opacity:1;fill-rule:nonzero;stroke:none;stroke-width:2;marker:none;visibility:visible;display:inline;overflow:visible;enable-background:accumulate"
       id="path3007"
       sodipodi:cx="331"
       sodipodi:cy="312.86218"
       sodipodi:rx="1"
       sodipodi:ry="0.5"
       d="m 332,312.86218 c 0,0.27614 -0.44772,0.5 -1,0.5 -0.55228,0 -1,-0.22386 -1,-0.5 0,-0.27614 0.44772,-0.5 1,-0.5 0.55228,0 1,0.22386 1,0.5 z"
       transform="matrix(0.95,0,0,0.8,14.1,62.672437)" />
    <path
       style="color:#000000;fill:#1a1a1a;fill-opacity:1;fill-rule:nonzero;stroke:none;stroke-width:2;marker:none;visibility:visible;display:inline;overflow:visible;enable-background:accumulate"
       d="m 327.625,311.375 c -0.45923,0.009 -0.89816,0.009 -1.34375,0.0312 -0.0163,0.008 -0.0161,0.0226 -0.0312,0.0312 -0.153,0.0878 -0.25,0.18688 -0.25,0.3125 0,0.27614 0.44772,0.5 1,0.5 0.55228,0 1,-0.22386 1,-0.5 0,-0.15719 -0.14815,-0.28334 -0.375,-0.375 z"
       id="path3009"
       inkscape:connector-curvature="0" />
    <path
       style="color:#000000;fill:#1a1a1a;fill-opacity:1;fill-rule:nonzero;stroke:none;stroke-width:2;marker:none;visibility:visible;display:inline;overflow:visible;enable-background:accumulate"
       d="m 332.375,311.375 c -0.22685,0.0917 -0.375,0.21781 -0.375,0.375 0,0.27614 0.44772,0.5 1,0.5 0.55228,0 1,-0.22386 1,-0.5 0,-0.12562 -0.097,-0.22467 -0.25,-0.3125 -0.0107,-5.5e-4 -0.0206,-0.0307 -0.0312,-0.0312 -0.44559,-0.0226 -0.88452,-0.0223 -1.34375,-0.0312 z"
       id="path3011"
       inkscape:connector-curvature="0" />
    <path
       style="color:#000000;fill:#1a1a1a;fill-opacity:1;fill-rule:nonzero;stroke:none;stroke-width:2;marker:none;visibility:visible;display:inline;overflow:visible;enable-background:accumulate"
       d="m 329,311.375 c 0,0.27614 0.44772,0.5 1,0.5 0.55228,0 1,-0.22386 1,-0.5 -0.33221,-10e-4 -0.66667,0 -1,0 -0.33333,0 -0.66779,-10e-4 -1,0 z"
       id="path3013"
       inkscape:connector-curvature="0" />
    <path
       sodipodi:nodetypes="cssscc"
       inkscape:connector-curvature="0"
       id="path3000"
       d="m 360.78491,327.36218 c 0,0 -5,25 -5,30 0,5 10,5 15,5 5,0 15,0 15,-5 0,-5 -5,-30 -5,-30 z"
       style="fill:#800000;stroke:none" />
    <path
       sodipodi:nodetypes="zzssssszz"
       inkscape:connector-curvature="0"
       id="path3002"
       d="m 370.78491,329.79075 c 5.75,0 11.5,-0.27678 11.5,-1.42857 0,-1.15178 -1.5,-2.84822 -1.5,-4 0,-1.15179 1.5,-1.48214 1.5,-7.24107 0,-5.75893 -5.75,-5.75893 -11.5,-5.75893 -5.75,0 -11.5,0 -11.5,5.75893 0,5.75893 1.5,6.08928 1.5,7.24107 0,1.15178 -1.5,2.84822 -1.5,4 0,1.15179 5.75,1.42857 11.5,1.42857 z"
       style="fill:#808080;stroke:none" />
    <path
       d="m 365.64527,335.97422 c 0.52237,0 0.91803,0.11879 1.18703,0.35667 0.26896,0.23783 0.40345,0.57889 0.40345,1.0233 0,0.45219 -0.13461,0.80498 -0.40345,1.05836 -0.269,0.2534 -0.66466,0.38007 -1.18703,0.3801 -0.50677,-3e-5 -0.89659,-0.12862 -1.16946,-0.38595 -0.27287,-0.25728 -0.40932,-0.60813 -0.40932,-1.05251 0,-0.39763 0.12287,-0.72703 0.36838,-0.98821 0.2456,-0.26118 0.64907,-0.39176 1.2104,-0.39176 z m 10.32644,0 c 1.05249,0 1.57876,0.45997 1.57878,1.37997 -2e-5,0.95896 -0.52629,1.43843 -1.57878,1.43846 -0.5068,-3e-5 -0.89662,-0.12862 -1.16949,-0.38595 -0.27288,-0.25728 -0.40932,-0.60813 -0.4093,-1.05251 -2e-5,-0.39763 0.12287,-0.72703 0.36836,-0.98821 0.24559,-0.26118 0.64907,-0.39176 1.21043,-0.39176 z"
       style="font-size:10px;font-style:normal;font-variant:normal;font-weight:normal;font-stretch:normal;line-height:125%;letter-spacing:0px;word-spacing:0px;color:#000000;fill:#ffffff;fill-opacity:1;fill-rule:nonzero;stroke:none;stroke-width:1px;marker:none;visibility:visible;font-family:Open Sans;-inkscape-font-specification:Open Sans"
       id="path3004"
       inkscape:connector-curvature="0" />
    <path
       d="m 374.52135,355.75015 c -1.73082,0 -3.06208,-0.59058 -3.99374,-1.77174 -0.93168,-1.18118 -1.39752,-2.87107 -1.39752,-5.06965 l 0,-2.0115 -6.72446,0 0,-1.98808 17.09767,0 0,4.43227 c -3e-5,4.27246 -1.66068,6.4087 -4.98195,6.4087 z m -3.68384,-8.85289 0,1.78929 c 0,1.762 0.28456,3.03671 0.85373,3.82416 0.56911,0.78743 1.4813,1.18116 2.73656,1.18118 1.13047,-2e-5 1.97249,-0.37035 2.52604,-1.111 0.55355,-0.74068 0.83032,-1.89455 0.83032,-3.46163 l 0,-2.222 z"
       style="font-size:10px;font-style:normal;font-variant:normal;font-weight:normal;font-stretch:normal;line-height:125%;letter-spacing:0px;word-spacing:0px;color:#000000;fill:#ffffff;fill-opacity:1;fill-rule:nonzero;stroke:none;stroke-width:1px;marker:none;visibility:visible;font-family:Open Sans;-inkscape-font-specification:Open Sans"
       id="path3006"
       inkscape:connector-curvature="0" />
    <path
       transform="matrix(0.95,0,0,0.8,57.684909,62.672437)"
       d="m 332,312.86218 a 1,0.5 0 1 1 -2,0 1,0.5 0 1 1 2,0 z"
       sodipodi:ry="0.5"
       sodipodi:rx="1"
       sodipodi:cy="312.86218"
       sodipodi:cx="331"
       id="path3008"
       style="color:#000000;fill:#1a1a1a;fill-opacity:1;fill-rule:nonzero;stroke:none;stroke-width:2;marker:none;visibility:visible;display:inline;overflow:visible;enable-background:accumulate"
       sodipodi:type="arc" />
    <path
       transform="matrix(0.95,0,0,0.8,54.884909,62.672437)"
       d="m 332,312.86218 a 1,0.5 0 1 1 -2,0 1,0.5 0 1 1 2,0 z"
       sodipodi:ry="0.5"
       sodipodi:rx="1"
       sodipodi:cy="312.86218"
       sodipodi:cx="331"
       id="path3010"
       style="color:#000000;fill:#1a1a1a;fill-opacity:1;fill-rule:nonzero;stroke:none;stroke-width:2;marker:none;visibility:visible;display:inline;overflow:visible;enable-background:accumulate"
       sodipodi:type="arc" />
    <path
       inkscape:connector-curvature="0"
       id="path3012"
       d="m 368.40991,311.375 c -0.45923,0.009 -0.89816,0.009 -1.34375,0.0312 -0.0163,0.008 -0.0161,0.0226 -0.0312,0.0312 -0.153,0.0878 -0.25,0.18688 -0.25,0.3125 0,0.27614 0.44772,0.5 1,0.5 0.55228,0 1,-0.22386 1,-0.5 0,-0.15719 -0.14815,-0.28334 -0.375,-0.375 z"
       style="color:#000000;fill:#1a1a1a;fill-opacity:1;fill-rule:nonzero;stroke:none;stroke-width:2;marker:none;visibility:visible;display:inline;overflow:visible;enable-background:accumulate" />
    <path
       inkscape:connector-curvature="0"
       id="path3014"
       d="m 373.15991,311.375 c -0.22685,0.0917 -0.375,0.21781 -0.375,0.375 0,0.27614 0.44772,0.5 1,0.5 0.55228,0 1,-0.22386 1,-0.5 0,-0.12562 -0.097,-0.22467 -0.25,-0.3125 -0.0107,-5.5e-4 -0.0206,-0.0307 -0.0312,-0.0312 -0.44559,-0.0226 -0.88452,-0.0223 -1.34375,-0.0312 z"
       style="color:#000000;fill:#1a1a1a;fill-opacity:1;fill-rule:nonzero;stroke:none;stroke-width:2;marker:none;visibility:visible;display:inline;overflow:visible;enable-background:accumulate" />
    <path
       inkscape:connector-curvature="0"
       id="path3016"
       d="m 369.78491,311.375 c 0,0.27614 0.44772,0.5 1,0.5 0.55228,0 1,-0.22386 1,-0.5 -0.33221,-10e-4 -0.66667,0 -1,0 -0.33333,0 -0.66779,-10e-4 -1,0 z"
       style="color:#000000;fill:#1a1a1a;fill-opacity:1;fill-rule:nonzero;stroke:none;stroke-width:2;marker:none;visibility:visible;display:inline;overflow:visible;enable-background:accumulate" />
    <rect
       style="color:#000000;fill:url(#linearGradient3897);fill-opacity:1;fill-rule:nonzero;stroke:none;stroke-width:2;marker:none;visibility:visible;display:inline;overflow:visible;enable-background:accumulate"
       id="rect3018"
       width="15.999999"
       height="15.999999"
       x="395"
       y="331.36218"
       inkscape:export-filename="C:\Users\Ste\SkyDrive\Documents\Web\host\paprika\resources\touch-icon-pre.png"
       inkscape:export-xdpi="130.28999"
       inkscape:export-ydpi="130.28999" />
    <g
       id="g3105"
       transform="matrix(0.76789149,0,0,0.76789149,95.216432,77.407627)"
       inkscape:export-filename="C:\Users\Ste\SkyDrive\Documents\Web\host\paprika\resources\touch-icon-pre.png"
       inkscape:export-xdpi="130.28999"
       inkscape:export-ydpi="130.28999">
      <path
         d="m 397.50734,335.97422 c 0.32559,0 0.5722,0.074 0.73986,0.22231 0.16764,0.14823 0.25146,0.36081 0.25146,0.63781 0,0.28184 -0.0839,0.50173 -0.25146,0.65966 -0.16766,0.15794 -0.41427,0.23689 -0.73986,0.23691 -0.31586,-2e-5 -0.55883,-0.0802 -0.72891,-0.24056 -0.17007,-0.16036 -0.25512,-0.37904 -0.25512,-0.65601 0,-0.24784 0.0766,-0.45315 0.22961,-0.61594 0.15308,-0.16279 0.40455,-0.24418 0.75442,-0.24418 z m 6.43632,0 c 0.65601,0 0.98402,0.28669 0.98404,0.86012 -2e-5,0.5977 -0.32803,0.89655 -0.98404,0.89657 -0.31588,-2e-5 -0.55885,-0.0802 -0.72892,-0.24056 -0.17008,-0.16036 -0.25513,-0.37904 -0.25511,-0.65601 -2e-5,-0.24784 0.0766,-0.45315 0.22959,-0.61594 0.15307,-0.16279 0.40456,-0.24418 0.75444,-0.24418 z"
         style="font-size:10px;font-style:normal;font-variant:normal;font-weight:normal;font-stretch:normal;line-height:125%;letter-spacing:0px;word-spacing:0px;color:#000000;fill:#ffffff;fill-opacity:1;fill-rule:nonzero;stroke:none;stroke-width:1px;marker:none;visibility:visible;font-family:Open Sans;-inkscape-font-specification:Open Sans"
         id="path3101"
         inkscape:connector-curvature="0" />
      <path
         d="m 403.03968,348.30027 c -1.0788,0 -1.90856,-0.3681 -2.48925,-1.1043 -0.5807,-0.73621 -0.87105,-1.78949 -0.87105,-3.15984 l 0,-1.25374 -4.19126,0 0,-1.23914 10.65673,0 0,2.76257 c -1e-5,2.66297 -1.03507,3.99445 -3.10517,3.99445 z m -2.29609,-5.51788 0,1.11524 c 0,1.09823 0.17736,1.89274 0.53212,2.38355 0.35472,0.49079 0.92327,0.7362 1.70566,0.73621 0.7046,-10e-6 1.22942,-0.23083 1.57444,-0.69247 0.34502,-0.46165 0.51753,-1.18085 0.51753,-2.15758 l 0,-1.38495 z"
         style="font-size:10px;font-style:normal;font-variant:normal;font-weight:normal;font-stretch:normal;line-height:125%;letter-spacing:0px;word-spacing:0px;color:#000000;fill:#ffffff;fill-opacity:1;fill-rule:nonzero;stroke:none;stroke-width:1px;marker:none;visibility:visible;font-family:Open Sans;-inkscape-font-specification:Open Sans"
         id="path3103"
         inkscape:connector-curvature="0" />
    </g>
  </g>
</svg>
